<mxfile host="65bd71144e" agent="Mozilla/5.0 (Windows NT 10.0; Win64; x64) AppleWebKit/537.36 (KHTML, like Gecko) Code/1.89.1 Chrome/120.0.6099.291 Electron/28.2.8 Safari/537.36" version="24.7.17">
    <diagram id="U_rVpfk-y5if2J3s5eWr" name="第 1 页">
        <mxGraphModel dx="991" dy="471" grid="1" gridSize="10" guides="1" tooltips="1" connect="1" arrows="1" fold="1" page="1" pageScale="1" pageWidth="827" pageHeight="1169" math="0" shadow="0">
            <root>
                <mxCell id="0"/>
                <mxCell id="1" parent="0"/>
                <mxCell id="24" value="" style="group" vertex="1" connectable="0" parent="1">
                    <mxGeometry x="50" y="40" width="704.67" height="300" as="geometry"/>
                </mxCell>
                <mxCell id="22" value="" style="rounded=1;whiteSpace=wrap;html=1;arcSize=8;fillColor=#ffe6cc;strokeColor=#d79b00;fillOpacity=30;dashed=1;strokeWidth=2;" vertex="1" parent="24">
                    <mxGeometry width="340" height="300" as="geometry"/>
                </mxCell>
                <mxCell id="7" style="edgeStyle=none;html=1;exitX=0.5;exitY=0;exitDx=0;exitDy=0;exitPerimeter=0;endArrow=none;endFill=0;strokeWidth=2;fillColor=#f5f5f5;strokeColor=#666666;" edge="1" parent="24" source="3" target="4">
                    <mxGeometry relative="1" as="geometry"/>
                </mxCell>
                <mxCell id="3" value="" style="verticalAlign=top;verticalLabelPosition=bottom;labelPosition=center;align=center;html=1;outlineConnect=0;gradientDirection=north;strokeWidth=2;shape=mxgraph.networks.switch;fillColor=#000000;fillOpacity=80;fontColor=#333333;strokeColor=#666666;" vertex="1" parent="24">
                    <mxGeometry x="180" y="200" width="133.33" height="40" as="geometry"/>
                </mxCell>
                <mxCell id="4" value="" style="verticalAlign=top;verticalLabelPosition=bottom;labelPosition=center;align=center;html=1;outlineConnect=0;fillColor=#000000;strokeColor=#666666;gradientDirection=north;strokeWidth=2;shape=mxgraph.networks.wireless_modem;fontFamily=Helvetica;fontSize=12;fontColor=#333333;fillOpacity=80;" vertex="1" parent="24">
                    <mxGeometry x="180" y="30" width="133.33" height="113.33" as="geometry"/>
                </mxCell>
                <mxCell id="10" style="edgeStyle=none;html=1;exitX=1;exitY=0.5;exitDx=0;exitDy=0;exitPerimeter=0;endArrow=none;endFill=0;fillColor=#dae8fc;strokeColor=#6c8ebf;strokeWidth=2;dashed=1;dashPattern=1 1;" edge="1" parent="24" source="5">
                    <mxGeometry relative="1" as="geometry">
                        <mxPoint x="616.67" y="219.90476190476193" as="targetPoint"/>
                        <mxPoint x="550" y="220" as="sourcePoint"/>
                    </mxGeometry>
                </mxCell>
                <mxCell id="5" value="" style="fontColor=#333333;verticalAlign=top;verticalLabelPosition=bottom;labelPosition=center;align=center;html=1;outlineConnect=0;fillColor=#000000;strokeColor=#666666;gradientColor=none;gradientDirection=north;strokeWidth=2;shape=mxgraph.networks.router;fontFamily=Helvetica;fontSize=12;fillOpacity=80;" vertex="1" parent="24">
                    <mxGeometry x="380" y="200" width="133.33" height="40" as="geometry"/>
                </mxCell>
                <mxCell id="6" style="edgeStyle=none;html=1;entryX=0;entryY=0.5;entryDx=0;entryDy=0;entryPerimeter=0;endArrow=none;endFill=0;strokeWidth=2;fillColor=#f5f5f5;strokeColor=#666666;" edge="1" parent="24" target="5">
                    <mxGeometry relative="1" as="geometry">
                        <mxPoint x="314" y="124" as="sourcePoint"/>
                        <Array as="points">
                            <mxPoint x="329" y="125"/>
                            <mxPoint x="363" y="219"/>
                        </Array>
                    </mxGeometry>
                </mxCell>
                <mxCell id="9" value="" style="html=1;outlineConnect=0;fillColor=#dae8fc;strokeColor=#6c8ebf;gradientDirection=north;strokeWidth=2;shape=mxgraph.networks.cloud;align=center;verticalAlign=top;fontFamily=Helvetica;fontSize=12;fillOpacity=80;" vertex="1" parent="24">
                    <mxGeometry x="614.67" y="190" width="90" height="50" as="geometry"/>
                </mxCell>
                <mxCell id="11" value="光猫" style="text;html=1;align=center;verticalAlign=middle;whiteSpace=wrap;rounded=0;" vertex="1" parent="24">
                    <mxGeometry x="416.6700000000001" y="250" width="60" height="30" as="geometry"/>
                </mxCell>
                <mxCell id="12" value="路由器" style="text;html=1;align=center;verticalAlign=middle;whiteSpace=wrap;rounded=0;" vertex="1" parent="24">
                    <mxGeometry x="170" y="71.66" width="60" height="30" as="geometry"/>
                </mxCell>
                <mxCell id="13" value="交换机" style="text;html=1;align=center;verticalAlign=middle;whiteSpace=wrap;rounded=0;" vertex="1" parent="24">
                    <mxGeometry x="216.67000000000002" y="250" width="60" height="30" as="geometry"/>
                </mxCell>
                <mxCell id="19" value="" style="fontColor=#333333;verticalAlign=top;verticalLabelPosition=bottom;labelPosition=center;align=center;html=1;outlineConnect=0;fillColor=#000000;strokeColor=#666666;gradientColor=none;gradientDirection=north;strokeWidth=2;shape=mxgraph.networks.rack;fontFamily=Helvetica;fontSize=12;fillOpacity=80;" vertex="1" parent="24">
                    <mxGeometry x="30" y="100" width="70" height="140" as="geometry"/>
                </mxCell>
                <mxCell id="20" style="edgeStyle=none;html=1;exitX=0;exitY=0.5;exitDx=0;exitDy=0;exitPerimeter=0;fillColor=#f5f5f5;strokeColor=#666666;endArrow=none;endFill=0;strokeWidth=2;entryX=1;entryY=0.857;entryDx=0;entryDy=0;entryPerimeter=0;" edge="1" parent="24" source="3" target="19">
                    <mxGeometry relative="1" as="geometry">
                        <mxPoint x="246.67000000000007" y="279.9999999999999" as="targetPoint"/>
                    </mxGeometry>
                </mxCell>
                <mxCell id="21" value="机柜设备" style="text;html=1;align=center;verticalAlign=middle;whiteSpace=wrap;rounded=0;" vertex="1" parent="24">
                    <mxGeometry x="35" y="250" width="60" height="30" as="geometry"/>
                </mxCell>
                <mxCell id="64" value="" style="group" vertex="1" connectable="0" parent="1">
                    <mxGeometry x="50" y="430" width="720" height="220" as="geometry"/>
                </mxCell>
                <mxCell id="54" value="" style="rounded=1;whiteSpace=wrap;html=1;fillColor=#f5f5f5;strokeColor=#666666;fontColor=#333333;dashed=1;arcSize=6;" vertex="1" parent="64">
                    <mxGeometry width="250" height="220" as="geometry"/>
                </mxCell>
                <mxCell id="55" value="广播域 B" style="text;html=1;align=center;verticalAlign=middle;whiteSpace=wrap;rounded=0;" vertex="1" parent="64">
                    <mxGeometry x="80" y="184" width="90" height="30" as="geometry"/>
                </mxCell>
                <mxCell id="49" value="" style="rounded=1;whiteSpace=wrap;html=1;fillColor=#f5f5f5;strokeColor=#666666;fontColor=#333333;dashed=1;arcSize=7;" vertex="1" parent="64">
                    <mxGeometry x="260" width="300" height="220" as="geometry"/>
                </mxCell>
                <mxCell id="25" value="交换机" style="rounded=1;whiteSpace=wrap;html=1;arcSize=11;fillColor=default;fontColor=#333333;strokeColor=#666666;dashed=1;fillOpacity=80;imageWidth=24;" vertex="1" parent="64">
                    <mxGeometry x="440" y="65" width="80" height="90" as="geometry"/>
                </mxCell>
                <mxCell id="41" value="" style="html=1;outlineConnect=0;fillColor=#dae8fc;strokeColor=#6c8ebf;gradientDirection=north;strokeWidth=2;shape=mxgraph.networks.cloud;align=center;verticalAlign=top;fontFamily=Helvetica;fontSize=12;fillOpacity=80;" vertex="1" parent="64">
                    <mxGeometry x="620" y="74.44" width="100" height="55.56" as="geometry"/>
                </mxCell>
                <mxCell id="42" style="edgeStyle=none;html=1;exitX=1;exitY=0.5;exitDx=0;exitDy=0;endArrow=none;endFill=0;fillColor=#dae8fc;strokeColor=#6c8ebf;strokeWidth=2;dashed=1;dashPattern=1 1;" edge="1" parent="64" source="25">
                    <mxGeometry relative="1" as="geometry">
                        <mxPoint x="620" y="109.91999999999996" as="targetPoint"/>
                        <mxPoint x="530" y="109.91999999999996" as="sourcePoint"/>
                    </mxGeometry>
                </mxCell>
                <mxCell id="43" value="光猫" style="rounded=1;whiteSpace=wrap;html=1;arcSize=11;fillColor=#ffe6cc;strokeColor=#d79b00;fillOpacity=30;" vertex="1" parent="64">
                    <mxGeometry x="280" y="65" width="80" height="40" as="geometry"/>
                </mxCell>
                <mxCell id="44" value="路由器" style="rounded=1;whiteSpace=wrap;html=1;arcSize=11;fillColor=#e1d5e7;strokeColor=#9673a6;fillOpacity=30;gradientColor=none;" vertex="1" parent="64">
                    <mxGeometry x="160" y="115" width="200" height="40" as="geometry"/>
                </mxCell>
                <mxCell id="47" value="" style="curved=1;endArrow=none;html=1;exitX=1;exitY=0.5;exitDx=0;exitDy=0;entryX=0;entryY=0.5;entryDx=0;entryDy=0;endFill=0;fillColor=#f5f5f5;strokeColor=#666666;" edge="1" parent="64" source="43" target="25">
                    <mxGeometry width="50" height="50" relative="1" as="geometry">
                        <mxPoint x="380" y="120" as="sourcePoint"/>
                        <mxPoint x="430" y="70" as="targetPoint"/>
                        <Array as="points">
                            <mxPoint x="387" y="86"/>
                            <mxPoint x="413" y="111"/>
                        </Array>
                    </mxGeometry>
                </mxCell>
                <mxCell id="48" value="" style="curved=1;endArrow=none;html=1;exitX=1;exitY=0.5;exitDx=0;exitDy=0;entryX=0;entryY=0.5;entryDx=0;entryDy=0;endFill=0;fillColor=#f5f5f5;strokeColor=#666666;" edge="1" parent="64" source="44" target="25">
                    <mxGeometry width="50" height="50" relative="1" as="geometry">
                        <mxPoint x="370" y="95" as="sourcePoint"/>
                        <mxPoint x="450" y="120" as="targetPoint"/>
                        <Array as="points">
                            <mxPoint x="385" y="137"/>
                            <mxPoint x="410" y="110"/>
                        </Array>
                    </mxGeometry>
                </mxCell>
                <mxCell id="50" value="广播域 A" style="text;html=1;align=center;verticalAlign=middle;whiteSpace=wrap;rounded=0;" vertex="1" parent="64">
                    <mxGeometry x="365" y="184" width="90" height="30" as="geometry"/>
                </mxCell>
                <mxCell id="51" value="&lt;font style=&quot;font-size: 10px;&quot;&gt;192.168.1.1&lt;/font&gt;" style="text;html=1;align=right;verticalAlign=middle;whiteSpace=wrap;rounded=0;" vertex="1" parent="64">
                    <mxGeometry x="300" y="47" width="60" height="15" as="geometry"/>
                </mxCell>
                <mxCell id="53" value="&lt;font style=&quot;font-size: 10px;&quot;&gt;10.59.1.233&lt;/font&gt;" style="text;html=1;align=right;verticalAlign=middle;whiteSpace=wrap;rounded=0;" vertex="1" parent="64">
                    <mxGeometry x="300" y="156" width="60" height="15" as="geometry"/>
                </mxCell>
                <mxCell id="57" value="设备 A" style="rounded=1;whiteSpace=wrap;html=1;arcSize=11;fillColor=#e1d5e7;strokeColor=#9673a6;fillOpacity=30;gradientColor=none;" vertex="1" parent="64">
                    <mxGeometry x="30" y="63" width="80" height="40" as="geometry"/>
                </mxCell>
                <mxCell id="58" value="设备 B" style="rounded=1;whiteSpace=wrap;html=1;arcSize=11;fillColor=#e1d5e7;strokeColor=#9673a6;fillOpacity=30;gradientColor=none;" vertex="1" parent="64">
                    <mxGeometry x="30" y="115" width="80" height="40" as="geometry"/>
                </mxCell>
                <mxCell id="59" value="" style="curved=1;endArrow=none;html=1;exitX=1;exitY=0.5;exitDx=0;exitDy=0;entryX=0;entryY=0.5;entryDx=0;entryDy=0;endFill=0;fillColor=#f5f5f5;strokeColor=#666666;" edge="1" parent="64" source="57" target="44">
                    <mxGeometry width="50" height="50" relative="1" as="geometry">
                        <mxPoint x="110" y="79" as="sourcePoint"/>
                        <mxPoint x="190" y="104" as="targetPoint"/>
                        <Array as="points">
                            <mxPoint x="127" y="84"/>
                            <mxPoint x="143" y="134"/>
                        </Array>
                    </mxGeometry>
                </mxCell>
                <mxCell id="60" value="" style="endArrow=none;html=1;entryX=0;entryY=0.5;entryDx=0;entryDy=0;exitX=1;exitY=0.5;exitDx=0;exitDy=0;fillColor=#f5f5f5;strokeColor=#666666;" edge="1" parent="64" source="58" target="44">
                    <mxGeometry width="50" height="50" relative="1" as="geometry">
                        <mxPoint x="150" y="110" as="sourcePoint"/>
                        <mxPoint x="200" y="60" as="targetPoint"/>
                    </mxGeometry>
                </mxCell>
                <mxCell id="61" value="&lt;font style=&quot;font-size: 10px;&quot;&gt;192.168.1.1&lt;/font&gt;" style="text;html=1;align=left;verticalAlign=middle;whiteSpace=wrap;rounded=0;" vertex="1" parent="64">
                    <mxGeometry x="160" y="98" width="60" height="15" as="geometry"/>
                </mxCell>
                <mxCell id="62" value="&lt;font style=&quot;font-size: 10px;&quot;&gt;192.168.1.2&lt;/font&gt;" style="text;html=1;align=right;verticalAlign=middle;whiteSpace=wrap;rounded=0;" vertex="1" parent="64">
                    <mxGeometry x="50" y="47" width="60" height="15" as="geometry"/>
                </mxCell>
                <mxCell id="63" value="&lt;font style=&quot;font-size: 10px;&quot;&gt;192.168.1.3&lt;/font&gt;" style="text;html=1;align=right;verticalAlign=middle;whiteSpace=wrap;rounded=0;" vertex="1" parent="64">
                    <mxGeometry x="50" y="156" width="60" height="15" as="geometry"/>
                </mxCell>
            </root>
        </mxGraphModel>
    </diagram>
</mxfile>